<?xml version="1.0" encoding="UTF-8" standalone="no"?>
<!DOCTYPE svg PUBLIC "-//W3C//DTD SVG 20010904//EN"
              "http://www.w3.org/TR/2001/REC-SVG-20010904/DTD/svg10.dtd">

<svg xmlns="http://www.w3.org/2000/svg"
     width="59.97mm" height="59.97mm"
     viewBox="0 0 680 680">
  <path id="Selection"
        fill="#188fff" stroke="black" stroke-width="0"
        d="M 432.00,218.00
           C 427.78,213.86 425.34,208.26 422.76,203.00
             412.67,182.50 411.74,167.22 412.00,145.00
             412.11,136.03 414.50,125.50 417.33,117.00
             427.54,86.38 448.46,61.85 478.00,48.31
             496.89,39.65 512.56,37.76 533.00,38.00
             548.12,38.18 563.35,42.80 577.00,49.03
             577.00,49.03 589.00,55.69 589.00,55.69
             590.97,56.92 593.54,58.99 596.00,58.47
             599.06,57.82 608.29,47.71 611.00,45.00
             611.00,45.00 643.00,13.00 643.00,13.00
             648.83,7.18 654.21,0.44 663.00,0.04
             674.17,-0.46 680.46,5.83 679.96,17.00
             679.55,26.09 672.01,31.99 666.00,38.00
             666.00,38.00 635.00,69.00 635.00,69.00
             632.53,71.47 622.91,80.59 621.87,83.00
             620.57,86.03 622.76,88.54 624.31,91.00
             627.51,96.08 629.61,99.43 632.00,105.00
             640.84,125.57 642.25,137.95 642.00,160.00
             641.92,166.86 640.09,176.30 638.37,183.00
             628.39,221.95 598.47,252.38 560.00,263.71
             552.99,265.77 543.27,267.91 536.00,268.00
             536.00,268.00 518.00,268.00 518.00,268.00
             506.42,267.86 489.48,263.17 479.00,258.22
             479.00,258.22 467.01,251.94 467.01,251.94
             465.54,251.04 463.39,249.28 461.58,249.64
             459.67,250.02 456.42,253.59 455.00,255.00
             455.00,255.00 443.00,267.00 443.00,267.00
             440.29,269.71 430.22,278.74 429.87,282.00
             429.58,284.76 435.59,292.33 437.31,295.00
             443.05,303.91 449.41,315.27 453.57,325.00
             467.33,357.15 471.40,384.33 471.00,419.00
             470.83,433.08 466.91,454.38 463.00,468.00
             444.57,532.19 396.81,583.92 334.00,606.95
             317.39,613.04 299.62,617.15 282.00,618.96
             282.00,618.96 273.00,618.96 273.00,618.96
             273.00,618.96 263.00,620.00 263.00,620.00
             263.00,620.00 249.00,619.09 249.00,619.09
             221.93,617.24 201.06,612.61 176.00,601.85
             166.61,597.82 157.68,592.98 149.00,587.58
             146.49,586.02 139.59,580.74 137.00,580.95
             134.31,581.17 130.86,585.15 129.00,587.00
             129.00,587.00 113.00,603.00 113.00,603.00
             113.00,603.00 65.00,651.00 65.00,651.00
             65.00,651.00 40.00,675.47 40.00,675.47
             30.55,682.67 14.54,681.53 6.33,672.82
             -0.20,665.89 -2.26,652.51 2.00,644.00
             4.62,638.76 10.79,633.21 15.00,629.00
             15.00,629.00 100.00,544.00 100.00,544.00
             94.35,538.93 86.29,526.74 82.20,520.00
             70.08,500.03 61.62,479.83 56.58,457.00
             40.75,385.33 60.83,313.17 113.00,261.00
             129.06,244.94 147.53,231.24 168.00,221.26
             202.22,204.58 233.35,199.56 271.00,200.00
             271.00,200.00 281.00,200.92 281.00,200.92
             308.93,203.15 336.26,211.72 361.00,224.78
             370.12,229.60 379.77,235.91 388.00,242.13
             390.35,243.91 396.22,249.24 399.00,249.04
             401.92,248.84 406.89,243.11 409.00,241.00
             409.00,241.00 432.00,218.00 432.00,218.00 Z
           M 492.00,218.00
           C 503.68,224.62 515.66,227.15 529.00,227.00
             536.09,226.91 545.30,225.00 552.00,222.66
             603.06,204.83 616.87,139.44 579.71,101.17
             542.24,62.57 475.20,76.89 457.34,128.00
             454.77,135.37 453.09,143.16 453.00,151.00
             452.85,164.34 455.38,176.32 462.00,188.00
             471.39,181.27 484.97,163.88 493.00,159.67
             509.26,151.15 525.96,167.72 522.24,182.00
             519.08,194.14 499.89,206.98 492.00,218.00 Z
           M 173.00,543.00
           C 187.24,551.54 196.91,556.99 213.00,561.98
             254.46,574.83 299.86,570.37 338.00,549.69
             414.14,508.42 442.04,413.52 403.24,337.00
             397.79,326.24 387.24,310.66 378.96,302.00
             363.21,285.53 346.06,272.43 325.00,263.43
             307.29,255.86 290.09,252.22 271.00,250.91
             271.00,250.91 261.00,250.01 261.00,250.01
             261.00,250.01 251.00,250.91 251.00,250.91
             208.26,253.85 167.66,272.77 139.92,306.00
             128.66,319.49 119.18,334.57 112.81,351.00
             106.69,366.79 102.03,386.02 102.00,403.00
             102.00,403.00 102.00,417.00 102.00,417.00
             102.03,437.44 109.34,462.70 118.26,481.00
             122.98,490.69 129.29,498.97 135.00,508.00
             149.09,501.34 159.89,475.92 179.00,477.09
             183.50,477.37 188.33,479.01 192.00,481.64
             194.73,483.59 197.22,486.18 199.03,489.00
             214.08,512.35 184.43,527.04 173.00,543.00 Z" />
</svg>
