<?xml version="1.0" encoding="UTF-8" standalone="no"?>
<!DOCTYPE svg PUBLIC "-//W3C//DTD SVG 20010904//EN"
              "http://www.w3.org/TR/2001/REC-SVG-20010904/DTD/svg10.dtd">

<svg xmlns="http://www.w3.org/2000/svg"
     width="259.282mm" height="63.1449mm"
     viewBox="0 0 2940 716">
  <path id="Icon"
        fill="#188fff" stroke="black" stroke-width="0"
        d="M 504.00,238.00
           C 499.78,233.86 497.34,228.26 494.76,223.00
             484.67,202.50 483.74,187.22 484.00,165.00
             484.11,156.03 486.50,145.50 489.33,137.00
             499.54,106.38 520.46,81.85 550.00,68.31
             568.89,59.65 584.56,57.76 605.00,58.00
             620.12,58.18 635.35,62.80 649.00,69.03
             649.00,69.03 661.00,75.69 661.00,75.69
             662.97,76.92 665.54,78.99 668.00,78.47
             671.06,77.82 680.29,67.71 683.00,65.00
             683.00,65.00 715.00,33.00 715.00,33.00
             720.83,27.18 726.21,20.44 735.00,20.04
             746.17,19.54 752.46,25.83 751.96,37.00
             751.55,46.09 744.01,51.99 738.00,58.00
             738.00,58.00 707.00,89.00 707.00,89.00
             704.53,91.47 694.91,100.59 693.87,103.00
             692.57,106.03 694.76,108.54 696.31,111.00
             699.51,116.08 701.61,119.43 704.00,125.00
             712.84,145.57 714.25,157.95 714.00,180.00
             713.92,186.86 712.09,196.30 710.37,203.00
             700.39,241.95 670.47,272.38 632.00,283.71
             624.99,285.77 615.27,287.91 608.00,288.00
             608.00,288.00 590.00,288.00 590.00,288.00
             578.42,287.86 561.48,283.17 551.00,278.22
             551.00,278.22 539.01,271.94 539.01,271.94
             537.54,271.04 535.39,269.28 533.58,269.64
             531.67,270.02 528.42,273.59 527.00,275.00
             527.00,275.00 515.00,287.00 515.00,287.00
             512.29,289.71 502.22,298.74 501.87,302.00
             501.58,304.76 507.59,312.33 509.31,315.00
             515.05,323.91 521.41,335.27 525.57,345.00
             539.33,377.15 543.40,404.33 543.00,439.00
             542.83,453.08 538.91,474.38 535.00,488.00
             516.57,552.19 468.81,603.92 406.00,626.95
             389.39,633.04 371.62,637.15 354.00,638.96
             354.00,638.96 345.00,638.96 345.00,638.96
             345.00,638.96 335.00,640.00 335.00,640.00
             335.00,640.00 321.00,639.09 321.00,639.09
             293.93,637.24 273.06,632.61 248.00,621.85
             238.61,617.82 229.68,612.98 221.00,607.58
             218.49,606.02 211.59,600.74 209.00,600.95
             206.31,601.17 202.86,605.15 201.00,607.00
             201.00,607.00 185.00,623.00 185.00,623.00
             185.00,623.00 137.00,671.00 137.00,671.00
             137.00,671.00 112.00,695.47 112.00,695.47
             102.55,702.67 86.54,701.53 78.33,692.82
             71.80,685.89 69.74,672.51 74.00,664.00
             76.62,658.76 82.79,653.21 87.00,649.00
             87.00,649.00 172.00,564.00 172.00,564.00
             166.35,558.93 158.29,546.74 154.20,540.00
             142.08,520.03 133.62,499.83 128.58,477.00
             112.75,405.33 132.83,333.17 185.00,281.00
             201.06,264.94 219.53,251.24 240.00,241.26
             274.22,224.58 305.35,219.56 343.00,220.00
             343.00,220.00 353.00,220.92 353.00,220.92
             380.93,223.15 408.26,231.72 433.00,244.78
             442.12,249.60 451.77,255.91 460.00,262.13
             462.35,263.91 468.22,269.24 471.00,269.04
             473.92,268.84 478.89,263.11 481.00,261.00
             481.00,261.00 504.00,238.00 504.00,238.00 Z
           M 564.00,238.00
           C 575.68,244.62 587.66,247.15 601.00,247.00
             608.09,246.91 617.30,245.00 624.00,242.66
             675.06,224.83 688.87,159.44 651.71,121.17
             614.24,82.57 547.20,96.89 529.34,148.00
             526.77,155.37 525.09,163.16 525.00,171.00
             524.85,184.34 527.38,196.32 534.00,208.00
             543.39,201.27 556.97,183.88 565.00,179.67
             581.26,171.15 597.96,187.72 594.24,202.00
             591.08,214.14 571.89,226.98 564.00,238.00 Z
           M 245.00,563.00
           C 259.24,571.54 268.91,576.99 285.00,581.98
             326.46,594.83 371.86,590.37 410.00,569.69
             486.14,528.42 514.04,433.52 475.24,357.00
             469.79,346.24 459.24,330.66 450.96,322.00
             435.21,305.53 418.06,292.43 397.00,283.43
             379.29,275.86 362.09,272.22 343.00,270.91
             343.00,270.91 333.00,270.01 333.00,270.01
             333.00,270.01 323.00,270.91 323.00,270.91
             280.26,273.85 239.66,292.77 211.92,326.00
             200.66,339.49 191.18,354.57 184.81,371.00
             178.69,386.79 174.03,406.02 174.00,423.00
             174.00,423.00 174.00,437.00 174.00,437.00
             174.03,457.44 181.34,482.70 190.26,501.00
             194.98,510.69 201.29,518.97 207.00,528.00
             221.09,521.34 231.89,495.92 251.00,497.09
             255.50,497.37 260.33,499.01 264.00,501.64
             266.73,503.59 269.22,506.18 271.03,509.00
             286.08,532.35 256.43,547.04 245.00,563.00 Z" />
    <path id="Pulsar"
        fill="#464e56" stroke="black" stroke-width="0"
        d="M 1226.00,97.00
           C 1226.00,97.00 1244.00,97.00 1244.00,97.00
             1245.95,97.04 1248.63,96.90 1249.98,98.60
             1251.23,100.19 1251.00,104.01 1251.00,106.00
             1251.00,106.00 1251.00,227.00 1251.00,227.00
             1251.00,227.00 1251.00,260.00 1251.00,260.00
             1251.04,267.21 1252.50,273.41 1261.00,274.35
             1263.93,274.68 1271.73,273.43 1275.00,273.00
             1275.00,273.00 1275.00,293.00 1275.00,293.00
             1257.32,296.55 1233.91,298.48 1227.22,277.00
             1225.94,272.90 1226.01,270.19 1226.00,266.00
             1226.00,266.00 1226.00,97.00 1226.00,97.00 Z
           M 863.00,106.00
           C 863.00,106.00 931.00,106.00 931.00,106.00
             946.48,106.00 963.29,105.66 977.00,114.07
             998.15,127.04 1002.26,148.14 1002.00,171.00
             1001.78,189.68 992.33,207.64 976.00,217.12
             961.07,225.80 948.40,225.00 932.00,225.00
             932.00,225.00 887.00,225.00 887.00,225.00
             887.00,225.00 887.00,292.00 887.00,292.00
             887.00,292.00 863.00,292.00 863.00,292.00
             863.00,292.00 863.00,106.00 863.00,106.00 Z
           M 887.00,206.00
           C 887.00,206.00 938.00,206.00 938.00,206.00
             947.71,205.95 958.64,203.55 965.96,196.82
             981.64,182.40 981.92,150.00 966.83,135.18
             959.55,128.03 949.82,126.02 940.00,126.00
             940.00,126.00 887.00,126.00 887.00,126.00
             887.00,126.00 887.00,206.00 887.00,206.00 Z
           M 1315.00,267.00
           C 1332.22,272.63 1359.30,277.01 1377.00,272.49
             1388.74,269.49 1394.90,255.84 1386.72,246.04
             1381.38,239.64 1373.47,237.68 1366.00,234.95
             1342.88,226.49 1312.80,222.01 1311.09,192.00
             1310.90,188.69 1311.38,186.22 1311.92,183.00
             1316.05,158.51 1340.45,152.26 1362.00,152.00
             1372.38,151.88 1382.80,152.84 1393.00,154.80
             1395.55,155.29 1401.63,156.17 1403.40,157.85
             1405.36,159.72 1404.99,163.49 1405.00,166.00
             1405.00,166.00 1405.00,179.00 1405.00,179.00
             1405.00,179.00 1391.00,175.66 1391.00,175.66
             1391.00,175.66 1377.00,173.71 1377.00,173.71
             1369.25,172.52 1366.51,173.03 1359.00,173.71
             1349.78,174.82 1337.94,176.53 1336.56,188.00
             1334.75,203.02 1353.21,207.44 1364.00,211.00
             1382.48,217.10 1410.79,223.34 1414.92,246.00
             1415.54,251.04 1415.74,255.95 1414.92,261.00
             1414.61,265.75 1414.18,269.60 1412.01,274.00
             1400.98,296.36 1372.07,295.03 1351.00,295.00
             1343.25,294.99 1332.63,293.42 1325.00,291.79
             1322.55,291.27 1317.54,290.35 1315.99,288.30
             1314.74,286.64 1315.00,283.03 1315.00,281.00
             1315.00,281.00 1315.00,267.00 1315.00,267.00 Z
           M 1470.00,180.00
           C 1470.00,180.00 1470.00,169.00 1470.00,169.00
             1470.00,166.72 1469.79,163.23 1471.02,161.28
             1472.50,158.92 1475.51,158.30 1478.00,157.58
             1483.56,155.97 1489.27,154.79 1495.00,154.00
             1517.09,150.95 1550.99,149.15 1567.54,167.17
             1576.24,176.65 1578.85,190.49 1579.00,203.00
             1579.00,203.00 1579.00,292.00 1579.00,292.00
             1579.00,292.00 1558.00,292.00 1558.00,292.00
             1558.00,292.00 1556.00,278.00 1556.00,278.00
             1551.14,282.62 1547.11,285.64 1541.00,288.51
             1518.44,299.10 1475.61,299.28 1460.55,276.00
             1454.58,266.77 1454.88,260.39 1455.00,250.00
             1455.14,238.13 1460.67,227.71 1470.00,220.39
             1478.66,213.59 1491.20,211.02 1502.00,211.00
             1502.00,211.00 1555.00,211.00 1555.00,211.00
             1555.00,202.84 1555.76,194.70 1552.52,187.00
             1547.75,175.65 1534.10,173.13 1523.00,173.00
             1510.19,172.85 1503.74,173.12 1491.00,175.42
             1491.00,175.42 1470.00,180.00 1470.00,180.00 Z
           M 1656.00,172.00
           C 1670.94,162.28 1689.50,155.29 1707.00,152.00
             1707.00,152.00 1707.00,172.00 1707.00,172.00
             1697.60,173.33 1678.66,179.69 1670.00,183.78
             1660.53,188.25 1657.02,188.42 1657.00,199.00
             1657.00,199.00 1657.00,292.00 1657.00,292.00
             1657.00,292.00 1632.00,292.00 1632.00,292.00
             1632.00,292.00 1632.00,155.00 1632.00,155.00
             1632.00,155.00 1655.00,155.00 1655.00,155.00
             1655.00,155.00 1656.00,172.00 1656.00,172.00 Z
           M 1147.00,278.00
           C 1126.29,292.53 1113.81,295.29 1089.00,295.00
             1083.96,294.94 1078.79,294.05 1074.00,292.48
             1044.89,282.95 1044.00,256.49 1044.00,231.00
             1044.00,231.00 1044.00,199.00 1044.00,199.00
             1044.00,199.00 1044.00,168.00 1044.00,168.00
             1044.00,165.46 1043.56,158.45 1045.02,156.60
             1046.59,154.62 1050.70,155.00 1053.00,155.00
             1053.00,155.00 1069.00,155.00 1069.00,155.00
             1069.00,155.00 1069.00,228.00 1069.00,228.00
             1069.00,240.09 1067.56,253.58 1075.05,263.96
             1086.39,279.66 1114.62,276.56 1130.00,269.22
             1134.60,267.02 1143.57,261.83 1145.40,256.99
             1146.11,255.10 1146.00,252.05 1146.00,250.00
             1146.00,250.00 1146.00,155.00 1146.00,155.00
             1146.00,155.00 1171.00,155.00 1171.00,155.00
             1171.00,155.00 1171.00,292.00 1171.00,292.00
             1171.00,292.00 1148.00,292.00 1148.00,292.00
             1148.00,292.00 1147.00,278.00 1147.00,278.00 Z
           M 1555.00,230.00
           C 1555.00,230.00 1504.00,230.00 1504.00,230.00
             1488.67,230.18 1477.95,238.74 1479.18,255.00
             1479.62,260.68 1481.47,265.93 1486.04,269.63
             1497.18,278.48 1524.83,275.37 1537.00,269.63
             1542.41,267.15 1552.32,260.67 1554.40,255.00
             1555.46,252.12 1555.00,234.36 1555.00,230.00 Z" />
    <path id="Neighborhood"
        fill="#188fff" stroke="black" stroke-width="0"
        d="M 1500.00,429.00
           C 1500.00,429.00 1540.00,429.00 1540.00,429.00
             1540.00,429.00 1540.00,498.00 1540.00,498.00
             1553.81,487.44 1571.92,483.80 1589.00,484.00
             1605.94,484.20 1624.49,489.87 1632.62,506.00
             1639.48,519.59 1638.00,535.30 1638.00,550.00
             1638.00,550.00 1638.00,624.00 1638.00,624.00
             1638.00,624.00 1599.00,624.00 1599.00,624.00
             1599.00,624.00 1599.00,555.00 1599.00,555.00
             1599.00,546.03 1599.80,530.63 1595.01,523.00
             1589.28,513.89 1580.52,513.89 1571.00,514.00
             1562.27,514.11 1545.24,519.97 1541.02,528.04
             1539.81,530.36 1540.01,533.44 1540.00,536.00
             1540.00,536.00 1540.00,624.00 1540.00,624.00
             1540.00,624.00 1500.00,624.00 1500.00,624.00
             1500.00,624.00 1500.00,429.00 1500.00,429.00 Z
           M 1681.00,429.00
           C 1681.00,429.00 1720.00,429.00 1720.00,429.00
             1720.00,429.00 1720.00,494.00 1720.00,494.00
             1733.19,486.52 1747.97,483.83 1763.00,484.00
             1779.75,484.20 1799.55,490.64 1810.33,504.01
             1824.83,522.00 1824.25,543.28 1824.00,565.00
             1823.62,597.56 1802.47,626.59 1768.00,627.00
             1753.66,627.16 1743.42,627.46 1730.00,621.11
             1730.00,621.11 1717.00,613.00 1717.00,613.00
             1717.00,613.00 1714.40,622.98 1714.40,622.98
             1714.40,622.98 1708.00,624.00 1708.00,624.00
             1708.00,624.00 1681.00,624.00 1681.00,624.00
             1681.00,624.00 1681.00,429.00 1681.00,429.00 Z
           M 2162.00,429.00
           C 2162.00,429.00 2202.00,429.00 2202.00,429.00
             2202.00,429.00 2202.00,498.00 2202.00,498.00
             2227.97,478.13 2286.08,475.58 2297.97,513.00
             2299.85,518.91 2299.99,520.91 2300.00,527.00
             2300.00,527.00 2300.00,624.00 2300.00,624.00
             2300.00,624.00 2260.00,624.00 2260.00,624.00
             2260.00,624.00 2260.00,555.00 2260.00,555.00
             2260.00,545.96 2261.30,530.62 2256.78,523.00
             2251.31,513.82 2242.40,513.89 2233.00,514.00
             2224.27,514.11 2207.24,519.97 2203.02,528.04
             2201.81,530.36 2202.01,533.44 2202.00,536.00
             2202.00,536.00 2202.00,624.00 2202.00,624.00
             2202.00,624.00 2162.00,624.00 2162.00,624.00
             2162.00,624.00 2162.00,429.00 2162.00,429.00 Z
           M 2799.00,429.00
           C 2799.00,429.00 2838.00,429.00 2838.00,429.00
             2838.00,429.00 2838.00,624.00 2838.00,624.00
             2838.00,624.00 2804.00,624.00 2804.00,624.00
             2804.00,624.00 2802.00,613.00 2802.00,613.00
             2797.03,616.11 2792.40,619.77 2787.00,622.13
             2774.49,627.59 2764.20,627.15 2751.00,627.00
             2745.15,626.93 2738.59,625.71 2733.00,623.98
             2728.08,622.45 2723.32,620.77 2719.00,617.90
             2695.38,602.20 2694.71,576.24 2695.00,551.00
             2695.43,514.19 2722.69,484.43 2760.00,484.00
             2774.02,483.84 2786.81,487.07 2799.00,494.00
             2799.00,494.00 2799.00,429.00 2799.00,429.00 Z
           M 1240.00,431.00
           C 1240.00,431.00 1283.00,431.00 1283.00,431.00
             1283.00,431.00 1283.00,463.00 1283.00,463.00
             1283.00,463.00 1240.00,463.00 1240.00,463.00
             1240.00,463.00 1240.00,431.00 1240.00,431.00 Z
           M 864.00,438.00
           C 864.00,438.00 891.00,438.00 891.00,438.00
             891.00,438.00 898.54,438.99 898.54,438.99
             898.54,438.99 905.86,448.00 905.86,448.00
             905.86,448.00 919.42,467.00 919.42,467.00
             919.42,467.00 958.42,522.00 958.42,522.00
             958.42,522.00 986.00,561.00 986.00,561.00
             986.00,561.00 986.00,438.00 986.00,438.00
             986.00,438.00 1025.00,438.00 1025.00,438.00
             1025.00,438.00 1025.00,624.00 1025.00,624.00
             1025.00,624.00 998.00,624.00 998.00,624.00
             998.00,624.00 990.32,622.98 990.32,622.98
             990.32,622.98 983.00,614.00 983.00,614.00
             983.00,614.00 969.58,595.00 969.58,595.00
             969.58,595.00 925.42,533.00 925.42,533.00
             925.42,533.00 904.00,503.00 904.00,503.00
             904.00,503.00 904.00,624.00 904.00,624.00
             904.00,624.00 864.00,624.00 864.00,624.00
             864.00,624.00 864.00,438.00 864.00,438.00 Z
           M 1191.00,590.00
           C 1191.00,590.00 1191.00,610.00 1191.00,610.00
             1191.00,612.28 1191.21,615.76 1189.98,617.73
             1187.36,621.91 1172.94,624.26 1168.00,625.08
             1146.28,628.68 1117.02,628.64 1097.00,618.63
             1068.25,604.26 1062.66,579.48 1063.00,550.00
             1063.20,533.02 1070.17,511.83 1083.04,500.30
             1109.10,476.95 1165.49,477.75 1187.24,507.00
             1195.61,518.25 1198.83,532.15 1199.00,546.00
             1199.00,546.00 1199.00,563.00 1199.00,563.00
             1198.96,564.95 1199.10,567.63 1197.40,568.98
             1195.81,570.23 1191.99,570.00 1190.00,570.00
             1190.00,570.00 1100.00,570.00 1100.00,570.00
             1101.91,575.71 1103.26,580.26 1107.33,584.96
             1113.66,592.27 1122.83,594.75 1132.00,596.25
             1144.23,598.24 1163.88,596.91 1176.00,594.11
             1176.00,594.11 1191.00,590.00 1191.00,590.00 Z
           M 1344.00,574.00
           C 1332.03,568.13 1324.20,557.17 1322.15,544.00
             1322.15,544.00 1322.15,530.00 1322.15,530.00
             1322.18,514.78 1329.44,500.78 1343.00,493.31
             1354.78,486.83 1371.63,484.02 1385.00,484.00
             1385.00,484.00 1421.00,487.00 1421.00,487.00
             1421.00,487.00 1466.00,487.00 1466.00,487.00
             1466.00,487.00 1465.00,512.00 1465.00,512.00
             1465.00,512.00 1444.00,512.00 1444.00,512.00
             1446.77,515.09 1448.49,517.08 1450.07,521.00
             1452.46,526.92 1452.03,532.77 1452.00,539.00
             1451.94,551.25 1446.85,563.85 1437.00,571.47
             1426.14,579.88 1411.35,582.02 1398.00,582.00
             1387.08,581.98 1380.78,578.66 1370.00,583.91
             1366.89,585.43 1361.97,588.84 1363.40,592.94
             1365.22,598.18 1373.55,597.99 1378.00,598.00
             1378.00,598.00 1403.00,598.00 1403.00,598.00
             1423.04,598.00 1445.95,598.11 1453.90,621.00
             1455.18,624.67 1455.90,629.12 1455.99,633.00
             1456.08,637.36 1455.85,640.76 1454.71,645.00
             1451.37,657.43 1443.33,663.28 1432.00,668.13
             1414.73,675.52 1393.44,675.03 1375.00,675.00
             1366.51,674.99 1348.49,672.73 1340.00,671.00
             1337.24,670.43 1329.45,668.93 1327.60,667.15
             1325.63,665.26 1326.01,661.53 1326.00,659.00
             1326.00,659.00 1326.00,637.00 1326.00,637.00
             1326.00,637.00 1343.00,640.80 1343.00,640.80
             1352.31,642.65 1370.69,644.99 1380.00,645.00
             1389.07,645.01 1404.64,644.92 1413.00,641.90
             1419.46,639.56 1422.56,634.17 1414.98,630.31
             1412.23,628.91 1397.72,628.01 1394.00,628.00
             1394.00,628.00 1380.00,628.00 1380.00,628.00
             1361.94,628.00 1332.82,631.85 1326.76,609.00
             1325.94,605.91 1325.97,603.16 1326.00,600.00
             1326.06,594.31 1326.91,590.84 1330.11,586.00
             1334.18,579.83 1338.35,578.13 1344.00,574.00 Z
           M 1921.00,484.42
           C 1942.15,481.85 1971.24,486.83 1986.96,502.09
             2003.41,518.06 2005.88,540.40 2005.04,562.00
             2004.35,579.50 1999.98,597.23 1986.96,609.91
             1969.29,627.12 1943.95,627.26 1921.00,627.00
             1904.05,626.80 1883.56,619.89 1872.18,607.00
             1857.98,590.92 1854.78,566.55 1856.83,546.00
             1858.19,532.47 1860.69,520.29 1868.93,509.00
             1882.90,489.85 1899.51,487.49 1921.00,484.42 Z
           M 2082.00,500.00
           C 2082.00,500.00 2095.00,493.87 2095.00,493.87
             2106.44,488.97 2119.68,485.63 2132.00,484.00
             2132.00,484.00 2132.00,507.00 2132.00,507.00
             2131.94,516.24 2131.00,513.97 2118.00,517.13
             2118.00,517.13 2094.00,524.34 2094.00,524.34
             2090.82,525.46 2085.80,527.19 2084.02,530.21
             2082.80,532.29 2083.00,535.63 2083.00,538.00
             2083.00,538.00 2083.00,624.00 2083.00,624.00
             2083.00,624.00 2043.00,624.00 2043.00,624.00
             2043.00,624.00 2043.00,487.00 2043.00,487.00
             2043.00,487.00 2080.00,487.00 2080.00,487.00
             2080.00,487.00 2082.00,500.00 2082.00,500.00 Z
           M 2397.00,484.42
           C 2416.91,482.00 2445.65,486.53 2461.00,500.18
             2476.23,513.73 2481.20,534.40 2481.96,554.00
             2482.14,558.57 2481.57,559.89 2481.17,564.00
             2479.49,581.37 2476.13,597.13 2462.96,609.91
             2445.14,627.20 2420.07,627.27 2397.00,627.00
             2379.87,626.80 2359.80,619.88 2348.17,607.00
             2327.35,583.92 2326.42,533.66 2344.76,509.00
             2358.87,490.02 2375.48,487.49 2397.00,484.42 Z
           M 2578.00,484.42
           C 2598.00,481.99 2626.54,486.53 2642.00,500.18
             2669.83,524.76 2670.04,585.74 2643.00,610.91
             2625.59,627.11 2601.22,627.26 2579.00,627.00
             2562.22,626.80 2541.79,620.38 2530.09,607.99
             2508.49,585.10 2507.22,533.93 2525.76,509.00
             2534.70,496.97 2548.46,489.42 2563.00,486.45
             2563.00,486.45 2578.00,484.42 2578.00,484.42 Z
           M 1226.00,487.00
           C 1226.00,487.00 1283.00,487.00 1283.00,487.00
             1283.00,487.00 1283.00,624.00 1283.00,624.00
             1283.00,624.00 1243.00,624.00 1243.00,624.00
             1243.00,624.00 1243.00,517.00 1243.00,517.00
             1243.00,517.00 1223.00,517.00 1223.00,517.00
             1223.00,517.00 1226.00,487.00 1226.00,487.00 Z
           M 1383.00,507.29
           C 1375.18,508.48 1367.78,509.46 1362.39,516.04
             1355.39,524.59 1356.23,546.29 1365.09,553.58
             1369.78,557.44 1379.04,558.93 1385.00,559.00
             1393.42,559.09 1404.97,559.01 1411.67,553.21
             1420.99,545.16 1420.43,520.60 1410.82,512.79
             1404.24,507.44 1391.20,506.52 1383.00,507.29 Z
           M 1163.00,545.00
           C 1163.00,537.09 1163.87,528.63 1158.61,522.02
             1148.70,509.56 1117.30,509.94 1106.68,521.33
             1100.69,527.75 1100.01,536.68 1100.00,545.00
             1100.00,545.00 1163.00,545.00 1163.00,545.00 Z
           M 1741.00,514.30
           C 1735.52,515.33 1724.01,518.57 1720.99,523.47
             1719.96,525.14 1720.04,527.11 1720.00,529.00
             1720.00,529.00 1720.00,578.00 1720.00,578.00
             1720.01,580.52 1719.80,583.65 1721.02,585.91
             1725.08,593.43 1740.90,597.80 1749.00,597.99
             1753.61,598.09 1756.50,597.83 1761.00,596.76
             1783.14,591.53 1784.21,568.64 1784.00,550.00
             1783.89,540.69 1781.50,528.94 1774.90,522.04
             1766.29,513.05 1752.56,513.15 1741.00,514.30 Z
           M 2763.00,514.30
           C 2738.09,519.01 2734.75,541.55 2735.00,563.00
             2735.08,569.63 2736.82,580.55 2740.65,586.00
             2746.66,594.56 2756.94,597.76 2767.00,597.99
             2775.94,598.19 2793.41,594.31 2797.98,585.91
             2799.10,583.84 2798.98,581.29 2799.00,579.00
             2799.00,579.00 2799.00,532.00 2799.00,532.00
             2799.00,529.56 2799.21,526.34 2797.98,524.18
             2796.91,522.31 2794.78,520.86 2793.00,519.71
             2783.68,513.72 2773.71,513.23 2763.00,514.30 Z
           M 1925.00,518.29
           C 1916.56,519.57 1909.16,521.02 1903.39,528.04
             1896.24,536.73 1896.95,550.41 1897.00,561.00
             1897.09,580.32 1905.52,592.76 1926.00,593.00
             1936.33,593.12 1948.76,593.59 1956.67,585.67
             1966.43,575.92 1966.41,552.65 1963.58,540.00
             1962.25,534.06 1960.59,529.52 1955.91,525.33
             1948.28,518.51 1934.79,517.37 1925.00,518.29 Z
           M 2401.00,518.29
           C 2393.07,519.50 2385.99,520.76 2380.33,527.09
             2371.73,536.70 2371.61,558.98 2374.21,571.00
             2375.22,575.67 2377.16,581.21 2380.39,584.82
             2385.82,590.89 2395.18,592.90 2403.00,593.00
             2413.04,593.11 2425.01,593.37 2432.67,585.67
             2436.36,581.97 2438.24,576.02 2439.33,571.00
             2442.13,558.11 2442.09,534.97 2431.82,525.33
             2424.52,518.48 2410.54,517.39 2401.00,518.29 Z
           M 2582.00,518.29
           C 2573.59,519.57 2566.20,520.96 2560.53,528.04
             2557.31,532.06 2556.25,536.09 2555.21,541.00
             2552.61,553.22 2552.97,576.32 2562.33,585.67
             2567.83,591.18 2576.49,592.91 2584.00,593.00
             2594.09,593.11 2605.96,593.39 2613.67,585.67
             2617.97,581.38 2619.98,574.87 2620.87,569.00
             2622.81,556.09 2623.23,534.88 2612.90,525.21
             2605.73,518.51 2591.36,517.41 2582.00,518.29 Z" />
</svg>
